<?xml version="1.0" standalone="no"?>
<!DOCTYPE svg PUBLIC "-//W3C//DTD SVG 20010904//EN"
 "http://www.w3.org/TR/2001/REC-SVG-20010904/DTD/svg10.dtd">
<svg version="1.0" xmlns="http://www.w3.org/2000/svg"
 width="512.000000pt" height="512.000000pt" viewBox="0 0 512.000000 512.000000"
 preserveAspectRatio="xMidYMid meet">
<metadata>
Created by potrace 1.11, written by Peter Selinger 2001-2013
</metadata>
<g transform="translate(0.000000,512.000000) scale(0.100000,-0.100000)"
fill="#000000" stroke="none">
<path d="M1514 2965 c-50 -14 -123 -49 -176 -86 -30 -22 -38 -23 -38 -8 0 6
-7 26 -16 44 -33 70 -149 73 -296 7 -139 -61 -197 -174 -81 -156 42 6 43 6 43
-22 0 -16 -30 -101 -66 -189 -95 -231 -114 -289 -114 -340 0 -40 3 -47 26 -55
38 -15 254 -12 284 3 21 11 26 22 31 72 7 71 14 95 89 285 32 80 63 164 70
186 15 49 56 74 125 74 40 0 45 -3 45 -22 0 -13 -15 -59 -34 -103 -139 -329
-156 -380 -156 -450 0 -29 5 -37 26 -45 33 -13 260 -13 284 0 13 7 22 30 30
82 14 80 33 139 114 345 31 78 56 147 56 152 0 18 60 42 98 39 36 -3 37 -4 35
-43 -1 -23 -23 -89 -52 -156 -121 -278 -129 -358 -42 -416 74 -50 329 -19 378
46 30 39 0 81 -57 81 -11 0 -27 12 -37 26 -22 34 -11 75 57 219 64 136 90 222
90 296 0 51 -4 63 -30 93 -40 45 -87 60 -166 53 -64 -5 -163 -44 -225 -88 -17
-12 -31 -20 -32 -18 -1 2 -9 17 -17 33 -25 49 -63 70 -133 73 -34 1 -85 -4
-113 -12z"/>
<path d="M2660 2960 c-209 -45 -358 -136 -307 -187 18 -19 9 -20 222 39 48 14
105 20 180 21 100 2 113 0 149 -22 48 -30 66 -72 66 -155 0 -116 -33 -224 -91
-297 -33 -42 -121 -89 -167 -89 l-30 0 35 113 c63 201 92 283 118 328 51 91
27 115 -104 105 -112 -9 -179 -40 -226 -105 -19 -25 -59 -112 -90 -192 -60
-154 -101 -219 -138 -219 -58 -1 -86 -25 -71 -64 9 -23 86 -61 152 -75 66 -14
202 -14 237 -1 19 7 43 6 85 -5 72 -19 208 -19 277 -1 125 33 229 124 291 254
36 74 37 81 37 187 0 133 -18 193 -77 260 -75 85 -194 125 -368 124 -53 0
-133 -9 -180 -19z"/>
<path d="M3785 2964 c-131 -23 -292 -81 -337 -122 -10 -8 -18 -26 -18 -39 0
-20 5 -23 38 -23 21 0 65 9 98 19 80 27 173 41 267 41 132 0 178 -33 185 -131
8 -108 -51 -199 -147 -227 -44 -14 -91 -16 -91 -4 0 15 62 179 90 240 35 76
30 97 -27 106 -58 10 -198 -18 -244 -49 -53 -34 -99 -108 -152 -240 -83 -206
-102 -235 -155 -235 -36 0 -62 -18 -62 -44 0 -29 22 -49 85 -78 44 -20 66 -23
175 -23 167 0 188 14 235 148 l21 62 69 -3 c77 -4 182 11 260 35 171 55 276
175 278 321 3 177 -125 263 -385 261 -57 0 -139 -7 -183 -15z"/>
</g>
</svg>
